# xmcd
#
# Track frame offsets:
#	150
#	45996
#	93624
#	126662
#	168471
#
# Disc length: 3050 seconds
# Revision: 1
# Processed by: cddbd v1.5.2PL0 Copyright (c) Steve Scherf et al.
# Submitted via: dBpowerAMP V12.0
#
DISCID=400be805
DTITLE=Lester Levenson - The Ultimate Goal Vol 01 CD 02
DYEAR=1966
DGENRE=Home Study
TTITLE0=Letting Go of Ego pt 1
TTITLE1=Letting Go of Ego pt 2
TTITLE2=Letting Go of Ego pt 3
TTITLE3=The Perfect Body pt 1
TTITLE4=The Perfect Body pt 2
EXTD=
EXTT0=
EXTT1=
EXTT2=
EXTT3=
EXTT4=
PLAYORDER=
